<mxfile host="app.diagrams.net" modified="2023-11-23T19:59:07.284Z" agent="Mozilla/5.0 (Macintosh; Intel Mac OS X 10_15_7) AppleWebKit/605.1.15 (KHTML, like Gecko) Version/17.2 Safari/605.1.15" version="22.1.3" etag="U9AnjjHWlSVr2Krm0i4D" type="github">
  <diagram name="Page-1" id="WCw-akAT7ex6LEloV4Qd">
    <mxGraphModel>
      <root>
        <mxCell id="0" />
        <mxCell id="1" parent="0" />
      </root>
    </mxGraphModel>
  </diagram>
</mxfile>
